<svg width="64" height="68" viewBox="0 0 64 68" fill="none" xmlns="http://www.w3.org/2000/svg">
<path d="M43.23 51.76C37.72 54.69 12.27 58.38 12.27 58.38C12.27 58.38 31.42 57.36 42.97 55.71C54.5 54.05 60.8 40.16 60.8 40.16L3.87 46.4L54.51 44.23C54.51 44.23 48.73 48.83 43.23 51.76ZM32.34 4.42C45.89 25.12 33.12 38.92 33.12 38.92C42.04 23.12 32.34 4.42 32.34 4.42ZM29.3 41.3L54.59 38.5C54.59 38.5 60.72 12.94 27.88 0C27.88 0 40.58 23.22 29.31 41.3H29.3ZM11.74 41.3C20.79 30.72 25.91 10.58 25.91 10.58C23.94 30.85 11.74 41.3 11.74 41.3ZM26.83 3.2C26.83 3.2 20.53 27.29 8.59 43.6L27.88 41.31L26.83 3.2Z" fill="white"/>
<path d="M24.2 47.68L3.87 49.27L4.53 50.87L24.2 47.67V47.68ZM21.84 52.52L6.43 55.06L7.09 56.66L21.84 52.52ZM5.32 52.46L5.97 54.05L27.87 49.27L5.32 52.46ZM7.42 61.79H7.28C7.1 61.79 6.92 61.83 6.75 61.93C6.59 62.03 6.45 62.15 6.35 62.29L4.46 65.11V67.21C4.47 67.37 4.53 67.5 4.64 67.61C4.76 67.71 4.9 67.76 5.07 67.76H5.19V67.86H2.22V67.76H2.34C2.49407 67.7658 2.64447 67.7121 2.76 67.61C2.81493 67.5585 2.85912 67.4967 2.89002 67.428C2.92091 67.3594 2.9379 67.2853 2.94 67.21V65.11L1.06 62.3C0.96 62.15 0.83 62.03 0.66 61.94C0.49 61.84 0.32 61.8 0.13 61.8H0V61.7H3.22V61.8H3.11C2.97 61.8 2.87 61.84 2.81 61.93C2.76199 61.9937 2.73413 62.0703 2.73 62.15C2.73 62.2 2.73 62.25 2.77 62.3L4.17 64.67L5.61 62.3L5.64 62.15C5.64 62.08 5.61 62.01 5.54 61.93C5.49 61.84 5.39 61.8 5.26 61.8H5.16V61.7H7.42V61.8V61.79ZM13.28 67.76H13.37V67.86H10.25V67.76H10.33C10.48 67.76 10.58 67.72 10.64 67.64C10.71 67.56 10.74 67.48 10.74 67.41C10.7389 67.3382 10.7254 67.2672 10.7 67.2L10.28 66.25H8.03L7.61 67.21C7.58331 67.2768 7.56972 67.3481 7.57 67.42C7.57 67.49 7.6 67.57 7.67 67.65C7.73 67.73 7.84 67.76 7.98 67.76H8.07V67.86H5.94V67.76H6.03C6.18 67.76 6.33 67.72 6.47 67.63C6.62902 67.5348 6.75742 67.3959 6.84 67.23L9.03 62.65C9.34 61.97 9.5 61.55 9.52 61.39H9.62L12.46 67.19C12.55 67.39 12.66 67.53 12.82 67.63C12.97 67.72 13.12 67.76 13.28 67.76ZM8.21 65.85H10.11L9.17 63.69L8.21 65.85ZM17.07 68C16.0648 68.0498 15.0739 67.7455 14.27 67.14C13.9304 66.849 13.6619 66.4841 13.4851 66.0733C13.3083 65.6625 13.2279 65.2167 13.25 64.77C13.25 63.77 13.59 62.97 14.25 62.4C15.0582 61.7888 16.0586 61.4873 17.07 61.55C18 61.55 18.8 61.71 19.45 62.02V63.66H19.38C19.2616 63.1464 18.9725 62.6881 18.56 62.36C18.19 62.09 17.73 61.96 17.17 61.96C16.42 61.96 15.85 62.21 15.46 62.71C15.06 63.21 14.86 63.89 14.86 64.75C14.86 65.61 15.06 66.3 15.44 66.8C15.84 67.33 16.4 67.59 17.09 67.59C17.59 67.59 18 67.51 18.33 67.36C18.65 67.21 18.91 66.96 19.1 66.64C19.3 66.3 19.43 65.85 19.53 65.28H19.6L19.73 66.84C19.4848 67.2107 19.1375 67.5025 18.73 67.68C18.28 67.89 17.73 68 17.07 68ZM27.6 67.76H27.72V67.86H24.8V67.76H24.91C25.0607 67.7633 25.207 67.7097 25.32 67.61C25.3766 67.5604 25.4213 67.4987 25.4507 67.4294C25.4802 67.3602 25.4936 67.2852 25.49 67.21V65H22.7V67.23C22.71 67.38 22.77 67.52 22.88 67.62C23 67.72 23.13 67.77 23.28 67.77H23.4V67.87H20.48V67.77H20.59C20.7441 67.7758 20.8945 67.7221 21.01 67.62C21.065 67.5691 21.1086 67.5072 21.1379 67.4382C21.1672 67.3693 21.1815 67.2949 21.18 67.22V62.34C21.1806 62.2682 21.1658 62.197 21.1364 62.1315C21.1071 62.0659 21.064 62.0074 21.01 61.96C20.9545 61.9063 20.8886 61.8644 20.8164 61.8369C20.7442 61.8094 20.6672 61.7968 20.59 61.8H20.48V61.7H23.4V61.8H23.29C23.1424 61.7973 22.9994 61.8509 22.89 61.95C22.8338 61.9968 22.788 62.0547 22.7553 62.1201C22.7226 62.1855 22.7037 62.257 22.7 62.33V64.59H25.5V62.34C25.5023 62.2407 25.475 62.143 25.4216 62.0593C25.3682 61.9756 25.291 61.9097 25.2 61.87C25.1103 61.8238 25.0109 61.7998 24.91 61.8H24.81V61.7H27.72V61.8H27.6C27.4524 61.7973 27.3094 61.8509 27.2 61.95C27.1437 62.0004 27.0986 62.062 27.0676 62.1309C27.0366 62.1998 27.0203 62.2744 27.02 62.35V67.24C27.02 67.45 27.12 67.6 27.31 67.7C27.4 67.75 27.5 67.77 27.61 67.77L27.6 67.76ZM34.2 63.15V63.05C34.2 62.75 34.12 62.52 33.95 62.35C33.7596 62.1753 33.5083 62.082 33.25 62.09H32V67.23C32.0101 67.3768 32.0757 67.5142 32.1834 67.6145C32.2911 67.7148 32.4329 67.7703 32.58 67.77H32.7V67.87H29.8V67.77H29.9C30.0554 67.7731 30.206 67.7157 30.32 67.61C30.3766 67.5604 30.4213 67.4987 30.4507 67.4294C30.4802 67.3602 30.4936 67.2852 30.49 67.21V62.1H29.27C29.1388 62.0939 29.0077 62.1138 28.8841 62.1584C28.7606 62.203 28.6471 62.2715 28.55 62.36C28.4616 62.4531 28.393 62.5631 28.3483 62.6834C28.3037 62.8037 28.2838 62.9318 28.29 63.06V63.16H28.19V61.53C28.552 61.6276 28.9251 61.678 29.3 61.68H33.21C33.5853 61.6842 33.9593 61.6337 34.32 61.53V63.16H34.22L34.2 63.15ZM41.25 68C40.2448 68.0498 39.2539 67.7455 38.45 67.14C38.1104 66.849 37.8419 66.4841 37.6651 66.0733C37.4883 65.6625 37.4079 65.2167 37.43 64.77C37.43 63.77 37.76 62.97 38.43 62.4C39.2382 61.7888 40.2386 61.4873 41.25 61.55C42.18 61.55 42.97 61.71 43.63 62.02V63.66H43.56C43.4416 63.1464 43.1525 62.6881 42.74 62.36C42.37 62.09 41.91 61.96 41.35 61.96C40.6 61.96 40.03 62.21 39.63 62.71C39.23 63.21 39.04 63.89 39.04 64.75C39.04 65.61 39.24 66.3 39.62 66.8C40.02 67.33 40.57 67.59 41.27 67.59C41.77 67.59 42.18 67.51 42.51 67.36C42.83 67.21 43.09 66.96 43.28 66.64C43.48 66.3 43.61 65.85 43.71 65.28H43.78L43.91 66.84C43.6622 67.2122 43.3112 67.5041 42.9 67.68C42.45 67.89 41.9 68 41.25 68ZM44.66 67.87V67.77H44.78C44.95 67.77 45.08 67.71 45.18 67.61C45.2358 67.5635 45.2808 67.5055 45.3119 67.4398C45.343 67.3742 45.3594 67.3026 45.36 67.23V62.33C45.3606 62.2582 45.3458 62.187 45.3164 62.1215C45.2871 62.0559 45.244 61.9974 45.19 61.95C45.1372 61.8982 45.0747 61.8575 45.006 61.83C44.9373 61.8025 44.8639 61.7889 44.79 61.79H44.66V61.69H47.6V61.79H47.48C47.3259 61.7842 47.1755 61.8379 47.06 61.94C47.0034 61.9896 46.9587 62.0513 46.9293 62.1206C46.8998 62.1898 46.8864 62.2648 46.89 62.34V67.45H48.17C48.6 67.45 48.97 67.32 49.27 67.06C49.58 66.8 49.81 66.44 49.95 65.97H50.06L49.66 67.87H44.66ZM57.26 61.79H57.12C56.9955 61.7853 56.874 61.8282 56.78 61.91C56.7348 61.9462 56.6979 61.9917 56.672 62.0435C56.6461 62.0953 56.6318 62.1521 56.63 62.21V65.62C56.63 66.36 56.4 66.95 55.93 67.37C55.46 67.79 54.77 68 53.84 68C52.92 68 52.2 67.8 51.69 67.38C51.18 66.97 50.92 66.38 50.92 65.64V62.22C50.9216 62.1611 50.9098 62.1026 50.8856 62.0489C50.8613 61.9952 50.8252 61.9477 50.78 61.91C50.686 61.8282 50.5645 61.7853 50.44 61.79H50.29V61.69H53.08V61.79H52.93C52.8055 61.7853 52.684 61.8282 52.59 61.91C52.5466 61.9471 52.5117 61.9931 52.4875 62.0448C52.4634 62.0966 52.4506 62.1529 52.45 62.21V65.57C52.45 66.2 52.6 66.69 52.9 67.05C53.2 67.41 53.62 67.59 54.17 67.59C54.71 67.59 55.14 67.42 55.45 67.09C55.77 66.75 55.93 66.28 55.93 65.69V62.22C55.929 62.1605 55.915 62.102 55.8891 62.0485C55.8632 61.995 55.826 61.9477 55.78 61.91C55.686 61.8282 55.5645 61.7853 55.44 61.79H55.3V61.69H57.26V61.79ZM63.09 63.22C63.09 63.47 63.03 63.7 62.92 63.89C62.8181 64.0668 62.6728 64.2147 62.4978 64.3196C62.3228 64.4246 62.1239 64.4833 61.92 64.49C62.39 64.53 62.79 64.69 63.11 64.99C63.43 65.28 63.59 65.65 63.59 66.1C63.59 66.99 63.04 67.55 61.94 67.77C61.64 67.84 61.29 67.87 60.92 67.87H57.85V67.77H57.97C58.13 67.77 58.27 67.71 58.37 67.61C58.48 67.51 58.54 67.37 58.55 67.21V62.33C58.5511 62.2192 58.5168 62.1109 58.452 62.0209C58.3873 61.931 58.2955 61.8641 58.19 61.83C58.1198 61.803 58.0452 61.7894 57.97 61.79H57.85V61.69H60.69C62.29 61.69 63.09 62.19 63.09 63.22ZM61.87 66.02C61.87 65.7 61.8 65.43 61.67 65.22C61.42 64.81 60.99 64.6 60.38 64.6H60.36V64.5C60.7 64.5 60.98 64.41 61.19 64.22C61.4 64.02 61.51 63.72 61.51 63.32C61.51 62.5 61.12 62.09 60.35 62.09H60.05V67.45H60.48C60.88 67.45 61.22 67.34 61.48 67.1C61.74 66.87 61.87 66.5 61.87 66.01V66.02Z" fill="white"/>
</svg>
