<svg width="26" height="22" viewBox="0 0 26 22" fill="none" xmlns="http://www.w3.org/2000/svg">
<path d="M12.683 14.882H10.146C8.066 14.882 6.025 15.461 4.244 16.558C2.45492 17.6638 1.00168 19.237 0.041 21.108C0.013 20.758 0 20.408 0 20.058C0 12.911 5.678 7.118 12.683 7.118V0L26 11L12.683 22V14.882ZM10.146 12.294H15.219V16.575L21.97 11L15.22 5.425V9.705H12.684C11.2236 9.70384 9.78079 10.0241 8.458 10.643C7.12764 11.266 5.94846 12.1705 5.002 13.294C6.6366 12.6325 8.38361 12.2929 10.147 12.294H10.146Z" fill="white"/>
</svg>
